<svg xmlns="http://www.w3.org/2000/svg" xmlns:xlink="http://www.w3.org/1999/xlink" width="152" height="212" viewBox="0 0 152 212">
  <defs>
    <clipPath id="clip-iPhone_12_12_Pro_1">
      <rect width="152" height="212"/>
    </clipPath>
  </defs>
  <g id="iPhone_12_12_Pro_1" data-name="iPhone 12, 12 Pro – 1" clip-path="url(#clip-iPhone_12_12_Pro_1)">
    <rect width="152" height="212" fill="#fff"/>
    <g id="coffee_cup_man" data-name="coffee cup&amp;man" transform="translate(92.255 596.91)">
      <g id="freepik--Character--inject-11" transform="translate(37.306 -188.326)">
        <g id="freepik--character--inject-11-2" data-name="freepik--character--inject-11" transform="translate(-85.711 -377.488)">
          <g id="freepik--Arm--inject-11" transform="translate(29.334 22.465)">
            <path id="Path_764" data-name="Path 764" d="M361.61,314.712c3.449-.149,5.423-.036,8.114,2.757s16.05,14.666,16.05,14.666l-3.389,12.076a29.677,29.677,0,0,1-5.513-2.387c-3.12-1.694-13.842-12.529-13.842-12.529Z" transform="translate(-361.61 -308.909)" fill="#c0aa99"/>
            <path id="Path_765" data-name="Path 765" d="M361.61,314.712c3.449-.149,5.423-.036,8.114,2.757s16.05,14.666,16.05,14.666l-3.389,12.076a29.677,29.677,0,0,1-5.513-2.387c-3.12-1.694-13.842-12.529-13.842-12.529Z" transform="translate(-361.61 -308.909)" fill="#bfaa98" opacity="0.1"/>
            <path id="Path_766" data-name="Path 766" d="M373.312,309.248c-.776-.764-1.695-1.635-1.408-2.214a10.242,10.242,0,0,1,1.193-1.921c.3-.3.847.119,1.032.68a3.683,3.683,0,0,1-.107,1.6Z" transform="translate(-365.74 -305.014)" fill="#c8856a"/>
            <path id="Path_767" data-name="Path 767" d="M374.96,307.994c.919-.477,2.106.042,2.536,1.51s1.862,5.471.788,6.676a1.79,1.79,0,0,1-2.249.5S373.021,309.014,374.96,307.994Z" transform="translate(-366.732 -306.146)" fill="#e0e0e0"/>
            <path id="Path_768" data-name="Path 768" d="M380.265,310.423a2.225,2.225,0,0,0-.972-1.557,26.445,26.445,0,0,0-2.47-2.082c-.477-.25-1.044.1-1.45.513s-1.241,1.193-1.331,1.623a2.269,2.269,0,0,0,.316,1.146l1.14,4.117s.644.048.817-.227c-.054.209.394.68.489.692l.119.692s-.364.722-1.844.513-3.288.471-3.645,1.79,3.717,7.792,3.717,7.792A7.624,7.624,0,0,0,378.1,325c2.106-.6,3.508-3.037,3.508-3.037s-2.709-3.771-2.488-4.284.853-1.623,1.14-2.154.215-1.008.394-1.348a1.713,1.713,0,0,0,.227-1.581,3.182,3.182,0,0,0,.1-1.342,1.592,1.592,0,0,0-.71-.835Z" transform="translate(-365.564 -305.694)" fill="#c8856a"/>
            <path id="Path_769" data-name="Path 769" d="M378.927,319.483c-.626-.042-1.157-.853-1.444-1.331s-.829-.263-1.157.316c-.054.209.394.68.489.692l.119.692s-.364.722-1.844.513-3.288.471-3.645,1.79,3.717,7.792,3.717,7.792a7.625,7.625,0,0,0,2.947-.43c2.106-.6,3.508-3.037,3.508-3.037s-2.709-3.771-2.488-4.284c.173-.412.489-.967.907-1.724C380.233,320.1,379.523,319.531,378.927,319.483Z" transform="translate(-365.568 -310.208)" fill="#af6152" opacity="0.5"/>
            <path id="Path_770" data-name="Path 770" d="M381.306,310.648a.738.738,0,0,1-.376-.1l-.346-.185-.656-.382a5.327,5.327,0,0,0-1.354-.6.936.936,0,0,0-.632.042,2.624,2.624,0,0,0-.543.471c-.34.37-.656.776-1.008,1.158a9.142,9.142,0,0,1,.817-1.319,2.387,2.387,0,0,1,.6-.6,1.193,1.193,0,0,1,.859-.1,4.305,4.305,0,0,1,1.414.7,5.276,5.276,0,0,1,.6.465A1.914,1.914,0,0,0,381.306,310.648Z" transform="translate(-367.572 -306.623)" fill="#af6152"/>
            <path id="Path_771" data-name="Path 771" d="M381.468,313.5a.513.513,0,0,1-.346-.078,2.264,2.264,0,0,1-.31-.173l-.6-.388a7,7,0,0,0-1.193-.644.71.71,0,0,0-.549,0,3.421,3.421,0,0,0-.543.376l-1.08.889a8.256,8.256,0,0,1,.913-1.08,2.929,2.929,0,0,1,.567-.459.979.979,0,0,1,.8,0,4.733,4.733,0,0,1,1.229.746c.185.149.352.31.525.465A1.248,1.248,0,0,0,381.468,313.5Z" transform="translate(-367.757 -307.774)" fill="#af6152"/>
            <path id="Path_772" data-name="Path 772" d="M381.707,316.57c-.215.054-.412-.089-.6-.179a3.251,3.251,0,0,1-.507-.358l-.477-.364c-.167-.119-.322-.257-.477-.346-.286-.2-.632-.048-.99.137a11.69,11.69,0,0,0-1.038.627,4.172,4.172,0,0,1,.907-.841,1.963,1.963,0,0,1,.6-.3.86.86,0,0,1,.7.1,3.8,3.8,0,0,1,.5.382,6.018,6.018,0,0,1,.459.412l.436.424A.925.925,0,0,0,381.707,316.57Z" transform="translate(-368.068 -309.007)" fill="#af6152"/>
            <path id="Path_773" data-name="Path 773" d="M386.892,313.89a.6.6,0,0,1-.358.817c-.394.107.042.43.382.794a3.178,3.178,0,0,0,.1-1.342,1.08,1.08,0,0,0-.119-.269Z" transform="translate(-371.6 -308.594)" fill="#af6152" opacity="0.5"/>
            <path id="Path_774" data-name="Path 774" d="M380.115,319.278a1.349,1.349,0,0,0,.841-.155,1.582,1.582,0,0,1-.913-.09,1,1,0,0,1-.3-.823.662.662,0,0,0-.125.412C379.62,318.824,379.876,319.278,380.115,319.278Z" transform="translate(-368.874 -310.337)" fill="#874c4c"/>
            <path id="Path_775" data-name="Path 775" d="M376.92,334.2s.406.835,2.607,5.036c1.056,2.017,3.5,6.909,6.318,9.129,3.693,2.9,6.462,2.178,7.756,1.038s1.551-6.372-.1-9.314c-1.372-2.446-2.267-2.852-5.143-5.644s-5.758-5.525-5.758-5.525C381.878,332.762,376.92,334.2,376.92,334.2Z" transform="translate(-367.785 -314.656)" fill="#c0aa99"/>
          </g>
          <g id="freepik--Top--inject-11">
            <path id="Path_776" data-name="Path 776" d="M317.62,375.263c1.158,11.736,3.818,19.379,9.194,23.866l22.756-18.245-.292-11.784Z" transform="translate(-314.533 -308.399)" fill="#455a64"/>
            <g id="freepik--Chest--inject-11" transform="translate(1.578 28.078)">
              <path id="freepik--chest--inject-11-2" data-name="freepik--chest--inject-11" d="M318.915,318.979a46.879,46.879,0,0,1,10.972-3.807,49.778,49.778,0,0,1,12.959-.561s3.824.507,5.7,8.675c1.319,5.728.191,11.569.161,16.909.28,2.387.8,3.711,1.342,6.432.048,1.193-1.038,2.47-2.506,3.526-2.542,1.832-6.981,3.359-12.5,5.608-5.656,4.117-11.736,6.754-17.034,6.981-1.981-8.037-2.47-18.842-2.739-22.78C314.386,326.956,316.886,323.985,318.915,318.979Z" transform="translate(-315.09 -314.421)" fill="#c0aa99"/>
              <path id="freepik--chest--inject-11-3" data-name="freepik--chest--inject-11" d="M318.915,318.979a46.879,46.879,0,0,1,10.972-3.807,49.778,49.778,0,0,1,12.959-.561s3.824.507,5.7,8.675c1.319,5.728.191,11.569.161,16.909.28,2.387.8,3.711,1.342,6.432.048,1.193-1.038,2.47-2.506,3.526-2.542,1.832-6.981,3.359-12.5,5.608-5.656,4.117-11.736,6.754-17.034,6.981-1.981-8.037-2.47-18.842-2.739-22.78C314.386,326.956,316.886,323.985,318.915,318.979Z" transform="translate(-315.09 -314.421)" opacity="0.3"/>
            </g>
            <g id="freepik--Head--inject-11" transform="translate(8.608)">
              <path id="Path_777" data-name="Path 777" d="M351.733,273.208a10.677,10.677,0,0,0-9.689-5.835c-6.08-.179-10.071,1.838-10.388,5.692h0a3.646,3.646,0,0,0-2.422,2.13c-.758,1.885-.71,3.651.561,8.7a36.785,36.785,0,0,0,2.231,6.563,2.852,2.852,0,0,0,1.533,1.45l.257-4.415V285.7s2.172,0,2.691-6.032c.072-.817.209-1.474.221-2.029l15.059,2.243S353.219,276.245,351.733,273.208Z" transform="translate(-327.625 -267.362)" fill="#263238"/>
              <path id="Path_778" data-name="Path 778" d="M328.93,292.825c1.653,1.032,3.383-.418,3.383-.418s-.137,4.176-.292,6.462-.853,2.548-1.593,2.78a13.791,13.791,0,0,0,4.845,3.132c4.69,1.593,9.493,0,7.2-3.144l.2-2.452a14.109,14.109,0,0,0,3.735-.06,4.658,4.658,0,0,0,4.1-4.009c.77-3.21,1.044-6.056.441-7.917a3.366,3.366,0,0,1-.149-1.062,30.089,30.089,0,0,0,0-4.177,4.588,4.588,0,0,0-1.444-2.846c-2.506-2.231-6.128.43-9.618,1.468a9.279,9.279,0,0,1-5.131-.37c1.068,1.4.626,3.795-.322,7-.322,1.11-.734,1.307-.978,1.277-.979-.1-1.241-1.342-1.79-2.041a2.554,2.554,0,0,0-4.033.6,4.177,4.177,0,0,0,1.444,5.775Z" transform="translate(-326.874 -271.752)" fill="#c8856a"/>
              <path id="Path_779" data-name="Path 779" d="M347.074,309.262c-3.282-.453-5.567-1.193-6.754-2.291a11.753,11.753,0,0,1-2.53-3.741s.239,3.15,1.933,4.743,3.783,2.56,7.225,2.84Z" transform="translate(-331.277 -281.829)" fill="#af6152"/>
              <path id="Path_780" data-name="Path 780" d="M355.41,289.44l.292,6.372,3.431-.955A14.85,14.85,0,0,0,355.41,289.44Z" transform="translate(-338.384 -276.267)" fill="#af6152"/>
              <path id="Path_781" data-name="Path 781" d="M349.048,286.873l-2.148,1.11a1.193,1.193,0,0,1,.483-1.629A1.277,1.277,0,0,1,349.048,286.873Z" transform="translate(-334.892 -274.971)" fill="#263238"/>
              <path id="Path_782" data-name="Path 782" d="M361,286.078l2.387.507a1.193,1.193,0,0,0-.889-1.444A1.277,1.277,0,0,0,361,286.078Z" transform="translate(-340.639 -274.522)" fill="#263238"/>
              <path id="Path_783" data-name="Path 783" d="M348.28,292.709c0,.531.7.961,1.468.794a1.193,1.193,0,0,0,1.038-1.313,1.659,1.659,0,0,1-1.193.764A1.73,1.73,0,0,1,348.28,292.709Z" transform="translate(-335.508 -277.376)" fill="#263238"/>
              <path id="Path_784" data-name="Path 784" d="M360.63,291.53c-.113.525.418,1.116,1.193,1.157a1.193,1.193,0,0,0,1.354-.99,1.665,1.665,0,0,1-1.336.424A1.743,1.743,0,0,1,360.63,291.53Z" transform="translate(-340.483 -277.11)" fill="#263238"/>
            </g>
            <path id="Path_785" data-name="Path 785" d="M317.824,322.08c-5.31,2.345-6.307,6.867-4.642,13.92,1.384,5.865,4.206,15.292,6.42,19.379,1.79,3.317,3.526,4.427,4.368,4.684l5.919-14L326.7,333.6S323.88,322.444,317.824,322.08Z" transform="translate(-312.445 -289.433)" fill="#c0aa99"/>
            <path id="Path_786" data-name="Path 786" d="M334.9,352.112l-.817-3.192c-1.659,2.082-3.49,4.725-4.487,6.139-1.319,1.873-1.856,5.966-1.647,8.263C328.1,364.94,332.383,356.969,334.9,352.112Z" transform="translate(-318.682 -300.259)" opacity="0.15"/>
            <path id="Path_787" data-name="Path 787" d="M368.13,307.411a2.63,2.63,0,0,0-.668-.638l-.119-.078a4.525,4.525,0,0,0-1.492-.555,9.785,9.785,0,0,0-8.353,2.906,4.3,4.3,0,0,0-.829,1.36.938.938,0,0,0-.048.137,2.609,2.609,0,0,0-.131.907c0,2.488,2.476,6.062,4.773,7.16l.066.036.107.048.233.1.078.03.179.06.328.078h0a7.124,7.124,0,0,0,6.074-2.112,3.009,3.009,0,0,0,.2-.257l.113-.173.036-.054.131-.227a.483.483,0,0,1,.048-.1l.036-.078C369.949,313.694,369.681,309.362,368.13,307.411Z" transform="translate(-330.21 -282.968)" fill="#fff"/>
            <path id="Path_788" data-name="Path 788" d="M364.554,306.3a6.557,6.557,0,0,1,1.259.113,4.114,4.114,0,0,1,1.414.525l.1.06a2.277,2.277,0,0,1,.6.6c1.426,1.79,1.79,5.967.686,8.288v.078l-.036.072-.113.209h0l-.03.042-.1.143a2.3,2.3,0,0,1-.185.239,6.873,6.873,0,0,1-4.9,2.094,4.923,4.923,0,0,1-.907-.084l-.292-.072-.167-.054h-.072l-.215-.089-.1-.042h0l-.125.263.089-.28c-2.273-1.128-4.588-4.624-4.588-6.939a2.388,2.388,0,0,1,.113-.805,1.247,1.247,0,0,1,.048-.125,4.178,4.178,0,0,1,.776-1.271,9.594,9.594,0,0,1,6.742-2.959m0-.3a9.848,9.848,0,0,0-7.046,3.025,4.3,4.3,0,0,0-.829,1.36.92.92,0,0,0-.048.137,2.605,2.605,0,0,0-.131.907c0,2.488,2.476,6.062,4.773,7.16l.066.036.107.048.233.1.078.03.179.06.328.078h0a5.5,5.5,0,0,0,.955.083,7.213,7.213,0,0,0,5.119-2.2,2.971,2.971,0,0,0,.2-.257l.113-.173.036-.054.131-.227a.476.476,0,0,1,.048-.1l.036-.077c1.08-2.3.811-6.629-.728-8.58a2.63,2.63,0,0,0-.668-.638l-.119-.077a4.519,4.519,0,0,0-1.492-.555A7.314,7.314,0,0,0,364.554,306Z" transform="translate(-330.214 -282.945)" fill="#e0e0e0"/>
            <path id="Path_789" data-name="Path 789" d="M370.289,320.717c1.7.155,2.07,1.229.829,2.386a7.829,7.829,0,0,1-5.328,1.85c-1.7-.149-2.076-1.193-.835-2.387a7.858,7.858,0,0,1,5.334-1.85Z" transform="translate(-333.33 -288.881)" fill="#ebebeb"/>
            <path id="Path_790" data-name="Path 790" d="M370.334,321.119c1.533.119,1.856,1.062.728,2.106a7.3,7.3,0,0,1-4.821,1.671c-1.533-.119-1.861-1.062-.728-2.106a7.3,7.3,0,0,1,4.821-1.671Z" transform="translate(-333.578 -289.044)" fill="#e0e0e0"/>
            <path id="Path_791" data-name="Path 791" d="M370.334,321.119c1.533.119,1.856,1.062.728,2.106a7.3,7.3,0,0,1-4.821,1.671c-1.533-.119-1.861-1.062-.728-2.106a7.3,7.3,0,0,1,4.821-1.671Z" transform="translate(-333.578 -289.044)" opacity="0.1"/>
            <path id="Path_792" data-name="Path 792" d="M370.343,321.067a7.3,7.3,0,0,0-4.821,1.671.985.985,0,0,0,.644,1.862,7.291,7.291,0,0,0,4.821-1.677.984.984,0,1,0-.644-1.856Z" transform="translate(-333.587 -288.992)" fill="#e0e0e0"/>
            <path id="Path_793" data-name="Path 793" d="M352.79,315.927c-.143-.99-.507-1.981-.173-2.768.507-1.193.531-2.017.913-2.387s1.158.221,1.283.823Z" transform="translate(-328.594 -284.825)" fill="#af6152"/>
            <path id="Path_794" data-name="Path 794" d="M352.514,312.59a35.338,35.338,0,0,1,1.706-3.359,11.37,11.37,0,0,1,2.273-2.225c.871-.722,1.706-1.724,2.076-1.342a1.193,1.193,0,0,1,.191,1.474c-.322.537-1.229,1.718-1.229,1.718s1.79-1.289,2.482-1.885,1.193-1.086,1.593-.746.316.955-.245,1.641a26.894,26.894,0,0,1-1.844,2.029c-.537.531-.973,1.062-.973,1.062s1.707-1.164,2.285-1.665,1.277-1.146,1.521-.913c.346.328.406,1.122-.346,2.011-1.151,1.354-2.279,2.476-2.8,3.114s-1.11,1.432-.847,1.611l1.259-1.193a11.082,11.082,0,0,1,2.285-1.945c.5-.155,1.193.06.662,1.02a19.085,19.085,0,0,1-2.387,3.186c-1.044,1.193-1.283,1.4-1.366,1.981s.37,3.025.274,4.135c-.113,1.313-.6,1.551-1.342,2.727-.6.967-2.386,4.988-2.386,4.988-3.741-1.193-5.018-3.156-4.773-5.531a12.739,12.739,0,0,0,1.444-3.974,44.862,44.862,0,0,0-.131-5.644A4.7,4.7,0,0,1,352.514,312.59Z" transform="translate(-327.816 -282.777)" fill="#c8856a"/>
            <path id="Path_795" data-name="Path 795" d="M352.855,320.455a35.986,35.986,0,0,0-.2-5.316,4.663,4.663,0,0,1,.1-1.348,9.6,9.6,0,0,1,.5-1.253c.34-.823.746-1.617,1.157-2.386.221-.394.418-.782.668-1.193a6.855,6.855,0,0,1,.919-.984c.662-.6,1.372-1.134,2.017-1.742.167-.143.334-.292.513-.435a1.624,1.624,0,0,1,.6-.328.37.37,0,0,1,.346.143,1.9,1.9,0,0,1,.2.286,1.193,1.193,0,0,1,.131.674,1.378,1.378,0,0,1-.25.626c-.125.191-.251.37-.388.549-.263.358-.531.71-.811,1.056.268-.358.525-.716.776-1.086a2.683,2.683,0,0,0,.6-1.157,1.117,1.117,0,0,0-.131-.6c-.113-.167-.245-.4-.43-.358a1.486,1.486,0,0,0-.543.316c-.167.137-.334.286-.5.442-1.271,1.235-2.888,2.166-3.532,3.872-.418.782-.823,1.569-1.193,2.387a9.215,9.215,0,0,0-.5,1.223,4.719,4.719,0,0,0-.113,1.3c.036.883.119,1.79.143,2.661A19.8,19.8,0,0,1,352.855,320.455Z" transform="translate(-328.658 -282.731)" fill="#874c4c"/>
            <path id="Path_796" data-name="Path 796" d="M359.709,311.07c-.334.322-.7.6-1.008.931a7.441,7.441,0,0,0-.829,1.074c-.269.376-.537.746-.817,1.11a4.262,4.262,0,0,1-.465.525,1.1,1.1,0,0,1-.638.274c.465-.119.7-.531.955-.913s.507-.764.77-1.14a5.42,5.42,0,0,1,.895-1.068A8.127,8.127,0,0,1,359.709,311.07Z" transform="translate(-329.993 -284.992)" fill="#af6152"/>
            <path id="Path_797" data-name="Path 797" d="M361.9,314.59c-.292.286-.627.537-.931.805a2.684,2.684,0,0,0-.412.412c-.108.161-.221.34-.328.513-.221.346-.441.692-.68,1.026a7.453,7.453,0,0,1-.758.973c.209-.352.394-.716.6-1.074s.418-.7.632-1.056c.113-.173.215-.34.346-.519a2.469,2.469,0,0,1,.483-.424A8.5,8.5,0,0,1,361.9,314.59Z" transform="translate(-331.139 -286.412)" fill="#af6152"/>
            <path id="Path_798" data-name="Path 798" d="M363.782,318.715l.185-.215h0a12.521,12.521,0,0,0-1.82,1.933c-.274.4-.286.6-.173.662s.489-.334.489-.334l.471-.43C362.672,320.141,363.263,319.353,363.782,318.715Z" transform="translate(-332.396 -287.989)" fill="#af6152" opacity="0.5"/>
            <path id="Path_799" data-name="Path 799" d="M362.613,321.56c-.263.292-.525.6-.776.877-.131.143-.256.3-.37.448s-.227.316-.358.465c.072-.179.161-.358.251-.537a4.173,4.173,0,0,1,.358-.477A3.484,3.484,0,0,1,362.613,321.56Z" transform="translate(-332.075 -289.223)" fill="#af6152"/>
            <path id="Path_800" data-name="Path 800" d="M361.891,313.826a.954.954,0,0,0-.06-.137c0-.042-.06-.078-.089-.119a1.362,1.362,0,0,0-.251-.239,1.4,1.4,0,0,0-.322-.179.6.6,0,0,0-.149-.042c-.048,0-.09,0-.09.06a.131.131,0,0,0,.084.107h.048l.078.042.1.054a1.439,1.439,0,0,1,.185.149.938.938,0,0,1,.077.078l.036.042h0a1.575,1.575,0,0,0,.173.221l.042.054c.042.066.143.06.131-.036A.5.5,0,0,0,361.891,313.826Z" transform="translate(-332.002 -285.815)" fill="#af6152"/>
            <path id="Path_801" data-name="Path 801" d="M361.142,314.128l-.054-.054-.036-.036h-.042l-.083-.072-.155-.161s-.054-.048-.084,0a.084.084,0,0,0,0,.1,1.328,1.328,0,0,0,.167.2l.113.1a.362.362,0,0,0,.078.054s.042.03.06,0S361.16,314.164,361.142,314.128Z" transform="translate(-331.898 -286.087)" fill="#af6152"/>
            <path id="Path_802" data-name="Path 802" d="M358.034,311.807a.107.107,0,0,0,0-.06.262.262,0,0,0-.072-.107.81.81,0,0,0-.107-.1,1.068,1.068,0,0,0-.209-.125.816.816,0,0,0-.257-.084.3.3,0,0,0-.125,0c-.036,0-.042.054-.036.09a.12.12,0,0,0,.107.089l.1.03.09.03.1.054h0l.042.03.084.065h0l.036.036.06.054h0s.042.036.06.048l.054.03a.036.036,0,0,0,.048,0v-.036h0Z" transform="translate(-330.508 -285.096)" fill="#af6152"/>
            <path id="Path_803" data-name="Path 803" d="M357.656,312.441c0-.036-.071-.06-.1-.071h-.06l-.089-.03-.083-.03h-.137a.042.042,0,0,0-.031.018.042.042,0,0,0-.005.035.1.1,0,0,0,.036.077,1.06,1.06,0,0,0,.239.1l.089.03h.143a.059.059,0,0,0,0-.042h0A.113.113,0,0,0,357.656,312.441Z" transform="translate(-330.476 -285.492)" fill="#af6152"/>
            <path id="Path_804" data-name="Path 804" d="M363.1,316.848a1.98,1.98,0,0,1-.453-.28c-.149-.125-.245-.286-.388-.418,0,0-.054,0-.054.03a.453.453,0,0,0,.137.334,1.328,1.328,0,0,0,.221.227,1.193,1.193,0,0,0,.537.286.066.066,0,0,0,.083-.066.125.125,0,0,0-.084-.113Z" transform="translate(-332.518 -287.041)" fill="#af6152"/>
            <path id="Path_805" data-name="Path 805" d="M362.284,317.483l-.06-.042-.143-.125c-.066-.06-.137-.119-.2-.185s-.078-.048-.1,0,0,.089,0,.119a3,3,0,0,0,.227.251l.107.1.06.048.042.036a.613.613,0,0,0,.1.036.058.058,0,0,0,.054-.084A.245.245,0,0,0,362.284,317.483Z" transform="translate(-332.342 -287.419)" fill="#af6152"/>
            <path id="Path_806" data-name="Path 806" d="M365.236,322.107a1.261,1.261,0,0,0-.209-.227,1.283,1.283,0,0,0-.274-.2.706.706,0,0,0-.143-.054c-.078,0-.084.084,0,.125a.943.943,0,0,0,.125.089,1.116,1.116,0,0,1,.107.072l.042.036h0l.084.078.036.042h0l.065.09a1.352,1.352,0,0,0,.155.221s.1.054.107,0A.46.46,0,0,0,365.236,322.107Z" transform="translate(-333.462 -289.251)" fill="#af6152"/>
            <path id="Path_807" data-name="Path 807" d="M364.741,322.584a.244.244,0,0,0-.1-.1l-.042-.03-.1-.066-.185-.113h-.054a.06.06,0,0,0-.036.03.113.113,0,0,0,.042.119l.191.125.1.06.042.03.06.03h.048C364.747,322.674,364.753,322.614,364.741,322.584Z" transform="translate(-333.331 -289.513)" fill="#af6152"/>
            <path id="Path_808" data-name="Path 808" d="M341.554,336.39l-10.3,14.087a16.113,16.113,0,0,0-3.466,9.767c.042,3.132.65,6.909,5.579,5.477,3.616-1.05,5.107-2.387,7.261-6.229a78.282,78.282,0,0,0,3.878-9.9c1.682-4.887,2.637-8.084,2.637-8.084C345.647,341.825,341.792,338.83,341.554,336.39Z" transform="translate(-318.634 -295.205)" fill="#bfaa98"/>
            <path id="Path_809" data-name="Path 809" d="M351.58,302.84a1.665,1.665,0,1,0,3.3.448Z" transform="translate(-328.224 -281.672)" fill="#874c4c"/>
            <path id="Path_810" data-name="Path 810" d="M353.056,305.112a1.653,1.653,0,0,0,1.032-.2,2.679,2.679,0,0,0-2.428-1.1A1.652,1.652,0,0,0,353.056,305.112Z" transform="translate(-328.263 -282.059)" fill="#f28f8f"/>
          </g>
          <g id="freepik--Bottom--inject-11" transform="translate(5.703 49.159)">
            <path id="Path_811" data-name="Path 811" d="M455.518,459.868a2.243,2.243,0,0,1-.65,1.4,5.9,5.9,0,0,1-3.347,1.486,11.932,11.932,0,0,1-3.532.149,6.56,6.56,0,0,1-3.258-1.295,14.535,14.535,0,0,1-1.915-2.052,7.083,7.083,0,0,0-1.605-1.468,7.411,7.411,0,0,0-.871-.382c-.34-.167-.674-.346-1.02-.5a7.068,7.068,0,0,1-2.721-1.677c-.656-.9-.5-1.718-.6-3.258-.292-.978-.471-1.79-.471-1.79-1.521-1.832-5.859-6.474-7.351-8.078l7.888-6.6c2.673,4.5,4.248,7.613,6.414,10.877,1.265,1.9,2,2.888,2.667,3.8a26.289,26.289,0,0,0,3.079,3.437,15.9,15.9,0,0,0,2.035,1.706,14.863,14.863,0,0,0,1.683,1.056c.967.549,1.247.567,2.148,1.086A2.542,2.542,0,0,1,455.518,459.868Z" transform="translate(-364.831 -381.415)" fill="#c8856a"/>
            <path id="Path_812" data-name="Path 812" d="M440.45,470.79a3.37,3.37,0,0,0,.292,1.074c.6,1.02,2.983,1.73,3.878,2.04a5.1,5.1,0,0,1,2.923,2.387,8.831,8.831,0,0,0,5,3.443,13.993,13.993,0,0,0,8.317-.233c3.353-1.068,3.365-3.132,3.365-3.132s-.072-1.927-.966-2.118S440.45,470.79,440.45,470.79Z" transform="translate(-369.78 -395.529)" fill="#263238"/>
            <path id="Path_813" data-name="Path 813" d="M440.144,459.073c-.382.072-.334.322-.346.561a7.343,7.343,0,0,1,0,2.166,5.656,5.656,0,0,0,.322,3.461c1.193,1.754,5.239,1.981,6.867,3.717s3.228,3.95,7.84,4.254,7.84-1.581,8.5-2.983-.257-2.5-3.341-3.675c-3.276-1.247-7.953-5.632-7.953-5.638-.113-.1-.215-.2-.316-.3-.513-.513-1.659-1.533-1.82-2.309a4.444,4.444,0,0,0-.173-.841.817.817,0,0,0-.638-.4,7.943,7.943,0,0,0-3.64,1.068,4.3,4.3,0,0,0-1.408,1.092l-.083.113a1.361,1.361,0,0,0-.274.817,3.2,3.2,0,0,0,.6,1.3,2.743,2.743,0,0,1-1.092-.77,1.672,1.672,0,0,0-.656-.519c-.835-.221-1.706-.209-1.987-.489a1.85,1.85,0,0,1-.4-.62Z" transform="translate(-369.462 -389.998)" fill="#37474f"/>
            <path id="Path_814" data-name="Path 814" d="M459.989,478.45a5.764,5.764,0,0,1,2.685-5.322c3.162-2.178,5.37-1.337,6.5-.722,1.354.722,3.365,2.345,2.47,3.836-.966,1.611-2.732,2.548-6.187,3.043A8.315,8.315,0,0,1,459.989,478.45Z" transform="translate(-377.654 -395.903)" fill="#fafafa"/>
            <path id="Path_815" data-name="Path 815" d="M449.563,464.117a.376.376,0,0,0,.286-.2c.316-.6,2.446-2.912,4.916-2.565.084-.292-.233-.513-.543-.6-2.607-.2-4.69,2.136-5.071,2.846a.364.364,0,0,0,.173.5A.417.417,0,0,0,449.563,464.117Z" transform="translate(-373.273 -391.475)" fill="#fafafa"/>
            <path id="Path_816" data-name="Path 816" d="M457.685,464.057c.071-.221-.418-.6-.68-.6a6.092,6.092,0,0,0-4.773,2.876.364.364,0,0,0,.173.5.376.376,0,0,0,.239.036.388.388,0,0,0,.286-.2C453.216,466.073,455.3,463.866,457.685,464.057Z" transform="translate(-374.515 -392.572)" fill="#fafafa"/>
            <path id="Path_817" data-name="Path 817" d="M464.367,469.637c.066-.173-.388-.477-.931-.656-2.625-.322-4.773,2.1-5.167,2.8a.364.364,0,0,0,.167.507.437.437,0,0,0,.245.036.388.388,0,0,0,.286-.2C459.284,471.5,461.736,468.938,464.367,469.637Z" transform="translate(-376.949 -394.787)" fill="#fafafa"/>
            <path id="Path_818" data-name="Path 818" d="M455.692,469.581a.394.394,0,0,0,.286-.2c.31-.6,2.47-2.864,4.9-2.577.06-.239-.382-.555-.77-.6a6.166,6.166,0,0,0-4.833,2.864.37.37,0,0,0,.167.507A.39.39,0,0,0,455.692,469.581Z" transform="translate(-375.745 -393.681)" fill="#fafafa"/>
            <path id="Path_819" data-name="Path 819" d="M342.39,383.842c2,10.948,6.927,15.721,15.954,18.836,10.083,3.478,25.393,6.2,25.393,6.2a24.639,24.639,0,0,0,3.932,5.549c4.928,5.161,5.638,6.563,6.521,7.16s1.569.782,1.975.6l-.764-.728c-.06-2.148,6-6.9,7.756-6.163l.626,1.044a1.473,1.473,0,0,0-.083-1.587c-.6-1.152-4.063-6.635-9.868-15.626-1.534-2.386-2.249-3.138-8.407-7.756-7.44-5.591-19.838-13.156-19.838-13.156Z" transform="translate(-331.895 -359.858)" fill="#455a64"/>
            <path id="Path_820" data-name="Path 820" d="M383.559,410.406c.137-2.721.931-14.29.931-20.7-2.81-1.909-5.447-3.622-7.894-5.179l-12.87,3.264-8.806,12.846A25.866,25.866,0,0,0,363.4,405.2,172.119,172.119,0,0,0,383.559,410.406Z" transform="translate(-336.475 -362.648)" fill="#37474f"/>
            <path id="Path_821" data-name="Path 821" d="M431.233,446.494c-.268-2.8,4.845-7.106,7.756-6.163l1.856,3.252a6.811,6.811,0,0,0-3.89,1.45,8.466,8.466,0,0,0-2.983,4.176Z" transform="translate(-366.453 -383.973)" fill="#263238"/>
            <path id="Path_822" data-name="Path 822" d="M411.008,426.726a15.369,15.369,0,0,1-.829-4.266,13.729,13.729,0,0,0-.048,4.1Z" transform="translate(-358.242 -377.373)" opacity="0.2"/>
            <path id="Path_823" data-name="Path 823" d="M402.951,437.5a2.142,2.142,0,0,1-.883,1.265,5.8,5.8,0,0,1-3.55.895,11.746,11.746,0,0,1-3.5-.46,6.561,6.561,0,0,1-2.983-1.832,14.32,14.32,0,0,1-1.533-2.351,7.112,7.112,0,0,0-1.336-1.724,7.528,7.528,0,0,0-.788-.525c-.31-.221-.6-.453-.919-.668a10.026,10.026,0,0,1-2.387-2.112c-.949-1.366-.418-2.745-.322-4.284,0-.376.054-.752.083-1.128l-.054-.6c-.286-3.878-2.184-12.1-2.607-14.32l11.706-.477c-.257,6.492-.549,10.74-.638,13.227a9.951,9.951,0,0,0,.447,3.878,10.062,10.062,0,0,0,1.9,3.633,26.251,26.251,0,0,0,2.333,2.554,8.557,8.557,0,0,0,1.307.961,27.708,27.708,0,0,1,2.709,1.76,2.529,2.529,0,0,1,1.02,2.3Z" transform="translate(-347.147 -371.614)" fill="#c8856a"/>
            <path id="Path_824" data-name="Path 824" d="M384.864,445.62a3.3,3.3,0,0,0,.107,1.11c.412,1.11,2.631,2.219,3.466,2.673a5.083,5.083,0,0,1,2.47,2.852,8.852,8.852,0,0,0,4.338,4.254,13.992,13.992,0,0,0,8.234,1.193c3.49-.477,3.854-2.506,3.854-2.506s.257-1.915-.6-2.249S384.864,445.62,384.864,445.62Z" transform="translate(-348.173 -385.376)" fill="#263238"/>
            <path id="Path_825" data-name="Path 825" d="M385.714,433.91c-.388,0-.507.358-.5.758a6.773,6.773,0,0,1-.274,2.739,6.3,6.3,0,0,0-.2,3.49c.889,1.933,4.815,2.852,6.128,4.839s2.5,4.451,7,5.537,7.995-.215,8.884-1.474.173-2.5-2.667-4.176c-3.013-1.79-6.867-6.915-6.867-6.921a3.842,3.842,0,0,1-.263-.352c-.412-.6-1.372-1.79-1.39-2.589a4.51,4.51,0,0,0-.03-.853.812.812,0,0,0-.561-.507,7.893,7.893,0,0,0-3.765.43,4.248,4.248,0,0,0-1.587.823l-.1.1a1.361,1.361,0,0,0-.412.758,3.282,3.282,0,0,0,.364,1.384,2.662,2.662,0,0,1-.943-.949,7.521,7.521,0,0,1-.328-.7c-.6-1.426-2.172-1.116-2.452-1.861Z" transform="translate(-348.06 -381.306)" fill="#37474f"/>
            <path id="Path_826" data-name="Path 826" d="M402,457.237a5.764,5.764,0,0,1,3.58-4.773c3.49-1.611,5.525-.4,6.563.4,1.193.943,2.912,2.888,1.79,4.206-1.229,1.42-3.126,2.041-6.617,1.933A8.651,8.651,0,0,1,402,457.237Z" transform="translate(-354.984 -388.371)" fill="#fafafa"/>
            <path id="Path_827" data-name="Path 827" d="M394.637,441.11a.394.394,0,0,0,.322-.149c.406-.525,2.906-2.452,5.274-1.683.137-.274-.137-.549-.43-.7-2.536-.638-4.982,1.3-5.477,1.933a.364.364,0,0,0,.078.525A.388.388,0,0,0,394.637,441.11Z" transform="translate(-352.016 -383.489)" fill="#fafafa"/>
            <path id="Path_828" data-name="Path 828" d="M402.631,442.465c.107-.2-.31-.638-.567-.728a6.229,6.229,0,0,0-5.215,2.011.37.37,0,0,0,.083.525.412.412,0,0,0,.233.072.376.376,0,0,0,.316-.149C397.882,443.659,400.322,441.869,402.631,442.465Z" transform="translate(-353.008 -384.716)" fill="#fafafa"/>
            <path id="Path_829" data-name="Path 829" d="M408.278,449.089c.1-.155-.3-.537-.8-.805-2.536-.77-5.089,1.253-5.579,1.874a.37.37,0,0,0,.084.525.377.377,0,0,0,.233.078.394.394,0,0,0,.316-.149C402.968,450.056,405.8,447.949,408.278,449.089Z" transform="translate(-354.981 -387.165)" fill="#fafafa"/>
            <path id="Path_830" data-name="Path 830" d="M399.737,447.539a.412.412,0,0,0,.322-.149c.406-.519,2.924-2.387,5.274-1.7.1-.221-.286-.6-.656-.746a6.182,6.182,0,0,0-5.25,1.993.364.364,0,0,0,.078.525A.388.388,0,0,0,399.737,447.539Z" transform="translate(-354.014 -385.934)" fill="#fafafa"/>
            <path id="Path_831" data-name="Path 831" d="M383.09,414.092l.925,4.552s1.6,1.128,5.268.907,4.7-1.48,4.7-1.48l.34-5.071Z" transform="translate(-347.6 -373.734)" fill="#263238"/>
            <path id="Path_832" data-name="Path 832" d="M326.142,386.779c4.081,8.281,14.373,9.7,20.883,6.927,11.5-4.916,22.493-31.926,21.932-38.394s-7.16-8.52-18.693.6c-6.2,4.9-10.173,9.51-14.946,16.449-1.933.65-8.592,4.177-10.519,8.592A16.542,16.542,0,0,0,326.142,386.779Z" transform="translate(-324.8 -349.754)" fill="#455a64"/>
            <path id="Path_833" data-name="Path 833" d="M339.281,387.65l-1.79.692c-2.458,2.87-3.526,6-2.3,11.211C335.057,397.1,335.975,390.5,339.281,387.65Z" transform="translate(-328.786 -364.052)" fill="#37474f"/>
            <path id="Path_834" data-name="Path 834" d="M386.9,350.35c3.371,1.283,6.676,4.63,6.342,16.891-.239,8.812-.483,16.986-.662,20.286-.048.967-.567,1.641-1.79,2.112a14.378,14.378,0,0,1-8.6.34,2.386,2.386,0,0,1-1.706-1.79c-.442-1.969-1.11-5.931-1.712-10.37-.954-7.034-1.5-13.269.281-18.281C381.126,353.769,386.9,350.35,386.9,350.35Z" transform="translate(-345.527 -349.994)" fill="#455a64"/>
            <path id="Path_835" data-name="Path 835" d="M378.405,378.73c-.746,2.93-1.36,2.739-1.02,10.316.137,3.031.418,5.966.459,7.446.483-.668.991-1.408,1.456-2.112C378.769,391.194,377.486,382.525,378.405,378.73Z" transform="translate(-345.396 -360.618)" fill="#37474f"/>
          </g>
        </g>
      </g>
    </g>
  </g>
</svg>
