<svg xmlns="http://www.w3.org/2000/svg" width="140.483" height="162.872" viewBox="0 0 140.483 162.872">
  <g id="Group_417" data-name="Group 417" transform="translate(-116.87 599.91)">
    <g id="freepik--Mug--inject-11" transform="matrix(0.985, -0.174, 0.174, 0.985, 142.661, -525.204)">
      <g id="freepik--mug--inject-11-2" data-name="freepik--mug--inject-11" transform="translate(-27.182 -23.884)">
        <g id="freepik--Plate--inject-11" transform="translate(2.125 33.298)">
          <path id="Path_706" data-name="Path 706" d="M199.6,265.427c-24.7-14.262-64.758-14.262-89.458,0-12.354,7.131-18.529,16.481-18.529,25.826V293.9c0,9.346,6.194,18.691,18.529,25.823,24.7,14.266,64.754,14.266,89.458,0,12.354-7.131,18.529-16.477,18.525-25.823v-2.617C218.137,281.935,211.962,272.566,199.6,265.427Z" transform="translate(-91.61 -254.73)" fill="#c0aa99"/>
          <path id="Path_707" data-name="Path 707" d="M199.6,265.427c-24.7-14.262-64.758-14.262-89.458,0-12.354,7.131-18.529,16.481-18.529,25.826V293.9c0,9.346,6.194,18.691,18.529,25.823,24.7,14.266,64.754,14.266,89.458,0,12.354-7.131,18.529-16.477,18.525-25.823v-2.617C218.137,281.935,211.962,272.566,199.6,265.427Z" transform="translate(-91.61 -254.73)" fill="#fff" opacity="0.3"/>
          <path id="Path_708" data-name="Path 708" d="M133.863,328.992V260.08a79.434,79.434,0,0,0-23.724,8.633C97.785,275.845,91.61,285.194,91.61,294.54v2.648c0,9.346,6.194,18.691,18.529,25.827a83.18,83.18,0,0,0,29.013,9.547C134.153,331.671,133.863,328.992,133.863,328.992Z" transform="translate(-91.61 -258.009)" opacity="0.1"/>
          <path id="Path_709" data-name="Path 709" d="M199.6,265.427c-24.7-14.262-64.758-14.262-89.458,0s-24.7,37.387,0,51.649,64.754,14.262,89.458,0S224.3,279.689,199.6,265.427Z" transform="translate(-91.614 -254.73)" fill="#c0aa99"/>
          <path id="Path_710" data-name="Path 710" d="M199.6,265.427c-24.7-14.262-64.758-14.262-89.458,0s-24.7,37.387,0,51.649,64.754,14.262,89.458,0S224.3,279.689,199.6,265.427Z" transform="translate(-91.614 -254.73)" fill="#fff" opacity="0.8"/>
          <path id="Path_711" data-name="Path 711" d="M214.423,291.23c-18.1-10.453-47.429-10.453-65.524,0s-18.091,27.383,0,37.828,47.429,10.453,65.524,0S232.514,301.675,214.423,291.23Z" transform="translate(-118.403 -272.294)" fill="#e6d6c7"/>
          <path id="Path_712" data-name="Path 712" d="M219.436,303.464c-15.854-9.152-41.556-9.152-57.41,0s-15.873,24,0,33.147,41.556,9.152,57.41,0S235.29,312.628,219.436,303.464Z" transform="translate(-127.474 -280.39)" fill="#e6d6c7"/>
          <path id="Path_713" data-name="Path 713" d="M219.436,303.464c-15.854-9.152-41.556-9.152-57.41,0s-15.873,24,0,33.147,41.556,9.152,57.41,0S235.29,312.628,219.436,303.464Z" transform="translate(-127.474 -280.39)" fill="#fff" opacity="0.8"/>
          <path id="Path_714" data-name="Path 714" d="M138.51,343.768a75.03,75.03,0,0,0,16.6,6.287,101.774,101.774,0,0,0,17.5,2.822,115.547,115.547,0,0,0,17.708-.054,105.429,105.429,0,0,0,17.452-2.842,77.3,77.3,0,0,0,16.523-6.1,44.579,44.579,0,0,0,13.868-10.565,25.647,25.647,0,0,0,4.448-7.445,20.038,20.038,0,0,0,1.3-8.56,21.575,21.575,0,0,0-2.362-8.4,27.755,27.755,0,0,0-2.323-3.767,33.715,33.715,0,0,0-2.842-3.422,34.3,34.3,0,0,1,3.047,3.267,27.9,27.9,0,0,1,2.516,3.713,22.143,22.143,0,0,1,2.791,8.544,21.026,21.026,0,0,1-1.08,8.993,26.732,26.732,0,0,1-4.475,7.9,37.6,37.6,0,0,1-6.527,6.291,54.114,54.114,0,0,1-7.619,4.859,77.675,77.675,0,0,1-16.852,6.291,106.626,106.626,0,0,1-35.672,2.563,95,95,0,0,1-17.6-3.322,79.059,79.059,0,0,1-8.428-3.012,60.784,60.784,0,0,1-7.971-4.042Z" transform="translate(-120.353 -283.528)" fill="#fff"/>
          <path id="Path_715" data-name="Path 715" d="M226.789,307.587c-12.578-7.263-32.977-7.263-45.555,0s-12.582,19.04,0,26.3,32.977,7.263,45.555,0S239.372,314.862,226.789,307.587Z" transform="translate(-140.754 -283.785)" fill="#e6d6c7" opacity="0.2"/>
          <path id="Path_716" data-name="Path 716" d="M177.572,336.063,136.112,313.09l-44.5,14.018c.039,9.315,6.194,18.626,18.529,25.734a78.907,78.907,0,0,0,23.724,8.633Z" transform="translate(-91.61 -290.496)" fill="#3e0404" opacity="0.36"/>
        </g>
        <g id="freepik--mug--inject-11-3" data-name="freepik--mug--inject-11">
          <path id="Path_717" data-name="Path 717" d="M86.12,258.392c0,9.721,9.33,14.712,16.516,17.743,5.393,2.265,9.5,3.028,12.3,5.335-.256-1.343-6.45-34.247-6.45-34.247a15.273,15.273,0,0,0-8.66-2.245,11.344,11.344,0,0,0-5.269,1.471l-3.337,1.936C88.478,249.936,86.12,252.983,86.12,258.392Zm9.535-1.936a5.939,5.939,0,0,1,1.429-3.771,6.136,6.136,0,0,1,1.119-.1,9.752,9.752,0,0,1,7.031,2.745A95.058,95.058,0,0,1,109.1,269.3c-.306-.12-.612-.244-.933-.387-8.993-3.755-12.516-7.6-12.516-12.443Z" transform="translate(-86.12 -215.446)" fill="#fafafa"/>
          <path id="Path_718" data-name="Path 718" d="M86.12,261.4c0,9.721,9.33,14.711,16.516,17.743,5.393,2.265,9.5,3.028,12.3,5.335a196.973,196.973,0,0,0-9.772-32.327,15.257,15.257,0,0,0-8.664-2.265C92.539,249.981,86.12,252.478,86.12,261.4Zm6.194,0a5.838,5.838,0,0,1,5.869-5.807,9.752,9.752,0,0,1,7.031,2.745c1.75,4.557,4.181,13.763,4.313,17.29-1.518-.538-3-1.061-4.692-1.773-8.978-3.771-12.5-7.615-12.5-12.454Z" transform="translate(-86.12 -218.456)" fill="#e0e0e0"/>
          <path id="Path_719" data-name="Path 719" d="M127.194,274.258a46.867,46.867,0,0,0,4.173,7.7,21.156,21.156,0,0,1,6.446,3.144,196.974,196.974,0,0,0-9.772-32.327,15.378,15.378,0,0,0-4.592-1.885v5.583a9.818,9.818,0,0,1,4.646,2.5c1.75,4.557,4.181,13.763,4.313,17.29-1.518-.538-3-1.061-4.692-1.773Z" transform="translate(-108.998 -219.078)" opacity="0.1"/>
          <path id="Path_720" data-name="Path 720" d="M229.321,195.86c0-6.945-4.588-13.891-13.767-19.191-18.358-10.6-48.118-10.6-66.477,0-9.175,5.3-13.767,12.245-13.767,19.191h0v10.2a47.007,47.007,0,0,0,47.007,47.007h0a47.006,47.006,0,0,0,47-47Z" transform="translate(-116.266 -168.722)" fill="#fafafa"/>
          <path id="Path_721" data-name="Path 721" d="M182.274,169.13c12.485,0,24.216,2.8,33.031,7.894,8.746,5.033,13.55,11.738,13.55,18.835v10.2a46.6,46.6,0,0,1-93.194,0v-10.2c0-7.1,4.816-13.786,13.55-18.835,8.819-5.091,20.55-7.894,33.035-7.894m0-.41c-12.032,0-24.061,2.648-33.24,7.948s-13.767,12.245-13.767,19.191v10.2a47.007,47.007,0,0,0,47.034,47.007h0a47.006,47.006,0,0,0,47-47v-10.2c0-6.945-4.588-13.891-13.767-19.191s-21.208-7.948-33.236-7.948Z" transform="translate(-116.223 -168.72)" fill="#e0e0e0"/>
          <path id="Path_722" data-name="Path 722" d="M167.644,262.633c-19.628-8.389-18.858-24-12.327-23.256s18.583,3.058,34.526.054l.143-43.322-47.007,1.669c-5.11,4.5-7.669,9.679-7.669,14.866v10.2a47.007,47.007,0,0,0,47.007,47.007h0a46.822,46.822,0,0,0,30.17-10.964C204.981,264.364,187.277,271.023,167.644,262.633Z" transform="translate(-116.266 -185.506)" fill="#e0e0e0"/>
          <path id="Path_723" data-name="Path 723" d="M215.553,176.67c-18.358-10.6-48.118-10.6-66.477,0s-18.355,27.782,0,38.382,48.122,10.6,66.477,0S233.911,187.27,215.553,176.67Zm-1.432,35.908c-8.448,4.878-19.744,7.565-31.8,7.565s-23.357-2.695-31.808-7.565c-7.956-4.592-12.334-10.526-12.334-16.709s4.379-12.118,12.334-16.713c8.451-4.878,19.744-7.565,31.808-7.565s23.356,2.687,31.8,7.565c7.956,4.6,12.338,10.53,12.338,16.713S222.076,207.978,214.12,212.577Z" transform="translate(-116.266 -168.722)" fill="#fff"/>
          <path id="Path_724" data-name="Path 724" d="M218.65,183.679c-8.448-4.882-19.744-7.569-31.8-7.569s-23.36,2.687-31.808,7.569C147.075,188.27,142.7,194.2,142.7,200.388a13.585,13.585,0,0,0,1.041,5.168c1.727-4.259,5.594-8.25,11.3-11.541,8.448-4.878,19.744-7.565,31.808-7.565s23.356,2.687,31.8,7.565c5.7,3.291,9.566,7.271,11.3,11.541a13.58,13.58,0,0,0,1.038-5.168C230.988,194.205,226.606,188.27,218.65,183.679Z" transform="translate(-120.795 -173.249)" fill="#ebebeb"/>
          <path id="Path_725" data-name="Path 725" d="M186.846,176.11c-12.063,0-23.36,2.687-31.808,7.569C147.075,188.27,142.7,194.2,142.7,200.388a13.585,13.585,0,0,0,1.041,5.168c1.727-4.259,5.594-8.25,11.3-11.541,8.448-4.878,19.744-7.565,31.808-7.565.751,0,1.5,0,2.249.031-2.9-.031-9.017-1.494-6.969-5.463,2.153-4.15,7.6-4.87,11.614-4.607C191.48,176.215,189.177,176.11,186.846,176.11Z" transform="translate(-120.795 -173.249)" fill="#e0e0e0"/>
          <path id="Path_726" data-name="Path 726" d="M186.846,176.11c-12.063,0-23.36,2.687-31.808,7.569C147.075,188.27,142.7,194.2,142.7,200.388a13.585,13.585,0,0,0,1.041,5.168c1.727-4.259,5.594-8.25,11.3-11.541,8.448-4.878,19.744-7.565,31.808-7.565.751,0,1.5,0,2.249.031-2.9-.031-9.017-1.494-6.969-5.463,2.153-4.15,7.6-4.87,11.614-4.607C191.48,176.215,189.177,176.11,186.846,176.11Z" transform="translate(-120.795 -173.249)" opacity="0.1"/>
          <path id="Path_727" data-name="Path 727" d="M347.265,214.992c0-5.463-3.422-10.732-9.706-15.052,2.95,3.418,1.289,9.535-5.083,7.356h-.047c.856.422,1.692.859,2.5,1.328,5.7,3.291,9.566,7.271,11.3,11.541A13.582,13.582,0,0,0,347.265,214.992Z" transform="translate(-237.072 -187.853)" fill="#e0e0e0"/>
          <path id="Path_728" data-name="Path 728" d="M347.265,214.992c0-5.463-3.422-10.732-9.706-15.052,2.95,3.418,1.289,9.535-5.083,7.356h-.047c.856.422,1.692.859,2.5,1.328,5.7,3.291,9.566,7.271,11.3,11.541A13.582,13.582,0,0,0,347.265,214.992Z" transform="translate(-237.072 -187.853)" opacity="0.1"/>
          <path id="Path_729" data-name="Path 729" d="M220.3,210.385c-8.448-4.878-19.744-7.565-31.8-7.565s-23.36,2.687-31.808,7.565c-5.7,3.291-9.57,7.271-11.3,11.541,1.731,4.259,5.594,8.25,11.3,11.541,8.444,4.878,19.744,7.565,31.8,7.565s23.356-2.687,31.8-7.565c5.7-3.291,9.566-7.275,11.3-11.541C229.865,217.655,226,213.676,220.3,210.385Z" transform="translate(-122.444 -189.618)" fill="#ba68c8"/>
          <path id="Path_730" data-name="Path 730" d="M220.3,210.385c-8.448-4.878-19.744-7.565-31.8-7.565s-23.36,2.687-31.808,7.565c-5.7,3.291-9.57,7.271-11.3,11.541,1.731,4.259,5.594,8.25,11.3,11.541,8.444,4.878,19.744,7.565,31.8,7.565s23.356-2.687,31.8-7.565c5.7-3.291,9.566-7.275,11.3-11.541C229.865,217.655,226,213.676,220.3,210.385Z" transform="translate(-122.444 -189.618)" fill="#3e0404"/>
          <path id="Path_731" data-name="Path 731" d="M156.687,210.648c-5.7,3.291-9.57,7.271-11.3,11.541,1.731,4.259,5.594,8.25,11.3,11.541a59.4,59.4,0,0,0,22.454,7.007c-2.536-1.355-5.885-4.061-8.684-4.646-.968-.2-1.9-.5-2.853-.774-2.691-.774-3.535-1.653-4.073-2.323a4.03,4.03,0,0,1-.813-3.949A5.033,5.033,0,0,1,164.484,227c2.6-1.909,5.9-2.629,8.606-4.371a3.521,3.521,0,0,0,1.626-1.812,3.027,3.027,0,0,0-.639-2.555c-.534-.736-1.231-1.34-1.781-2.064a3.194,3.194,0,0,1-.755-2.532,2.687,2.687,0,0,1,.867-1.444c1.858-1.549,4.259-1.831,5.834-2.2a4.231,4.231,0,0,0,2.791-2.036c.608-1.026-.046-2.3.546-3.333A3.984,3.984,0,0,1,183,203.25C173.032,203.966,163.822,206.517,156.687,210.648Zm-.488,13.817a.775.775,0,0,1-.7,0,.213.213,0,0,1,0-.407.775.775,0,0,1,.7,0,.217.217,0,0,1,0,.407Zm4.417,6.38a2.412,2.412,0,0,1-2.184,0,.663.663,0,0,1,0-1.258,2.412,2.412,0,0,1,2.184,0,.663.663,0,0,1,0,1.258Zm.945-2.846a.774.774,0,0,1-.7,0,.213.213,0,0,1,0-.407.806.806,0,0,1,.7,0,.217.217,0,0,1,0,.406Zm.449-4.646a3.814,3.814,0,0,1-3.449,0,1.05,1.05,0,0,1,0-1.99,3.813,3.813,0,0,1,3.449,0,1.055,1.055,0,0,1,0,2Zm7.3-11.3a1.223,1.223,0,0,1,1.111,0,.337.337,0,0,1,0,.643,1.223,1.223,0,0,1-1.111,0,.341.341,0,0,1,0-.643Zm-5.056,3.991a1.05,1.05,0,0,1,0-1.99,3.806,3.806,0,0,1,3.446,0,1.05,1.05,0,0,1,0,1.99,3.806,3.806,0,0,1-3.446,0Zm2.276,7.534a1.231,1.231,0,0,1-1.115,0,.337.337,0,0,1,0-.639,1.231,1.231,0,0,1,1.115,0,.337.337,0,0,1,0,.639Zm4.986-4.944a1.2,1.2,0,0,1,0,2.276,4.355,4.355,0,0,1-3.937,0,1.2,1.2,0,0,1,0-2.276,4.355,4.355,0,0,1,3.937,0Zm3.616-9.35a.774.774,0,0,1-.7,0,.217.217,0,0,1,0-.387.774.774,0,0,1,.7,0,.213.213,0,0,1,0,.4Z" transform="translate(-122.444 -189.882)" fill="#7b411f" opacity="0.64"/>
          <path id="Path_732" data-name="Path 732" d="M295.594,217.635a47.916,47.916,0,0,0-6.194-2.985,10.234,10.234,0,0,0-1.715.534,3.233,3.233,0,0,0-1.568,1.13c-.844,1.324.19,3.035,1.3,4.139a30.824,30.824,0,0,0,5.633,4.228,11.221,11.221,0,0,1,2.966,2.261,3.4,3.4,0,0,1,.67,3.484,6.854,6.854,0,0,1-1.882,1.974,2.732,2.732,0,0,0-1.138,2.365,4.035,4.035,0,0,0,1.161,1.734,1.9,1.9,0,0,1,.561,1.912,2.1,2.1,0,0,1-1.762.945c-2.575.356-5.238.194-7.743.914a4.739,4.739,0,0,0-2.5,1.471c-.534.685-.751,1.58-1.316,2.238-1.278,1.494-3.6,1.161-5.567,1.274a18.7,18.7,0,0,0-7.162,2.342c-.368.182-.728.387-1.092.557,10.356-.573,19.942-3.171,27.344-7.429,5.7-3.291,9.566-7.274,11.3-11.541C305.16,224.905,301.3,220.926,295.594,217.635Zm-3.577,1.46a3.813,3.813,0,0,1-3.449,0,1.05,1.05,0,0,1,0-1.99,3.814,3.814,0,0,1,3.449,0A1.05,1.05,0,0,1,292.017,219.094Zm2.884,2.826a2.091,2.091,0,0,1-1.882,0c-.519-.3-.519-.774,0-1.088a2.091,2.091,0,0,1,1.882,0,.575.575,0,0,1,0,1.088Zm-7.081,21.072a2.346,2.346,0,0,1-2.129,0,.647.647,0,0,1,0-1.227,2.346,2.346,0,0,1,2.129,0A.647.647,0,0,1,287.82,242.993Zm2.575-1.13a1.347,1.347,0,0,1-1.227,0,.387.387,0,0,1,0-.7,1.347,1.347,0,0,1,1.227,0,.387.387,0,0,1,0,.7Zm8.9-11.742a1.115,1.115,0,0,1,1,0c.279.163.279.422,0,.581a1.092,1.092,0,0,1-1,0,.307.307,0,0,1,0-.581Zm1.467,5.679a4.986,4.986,0,0,1-4.5,0,1.374,1.374,0,0,1,0-2.6,4.986,4.986,0,0,1,4.5,0,1.372,1.372,0,0,1,0,2.6Zm1.6-8.327a2.729,2.729,0,0,1-2.474,0,.756.756,0,0,1,0-1.432,2.73,2.73,0,0,1,2.474,0,.755.755,0,0,1,0,1.432Zm2.578.728a1.092,1.092,0,0,1-1,0c-.279-.159-.279-.418,0-.581a1.115,1.115,0,0,1,1,0c.283.163.283.422,0,.581Z" transform="translate(-197.739 -196.868)" fill="#92582a" opacity="0.73"/>
          <path id="Path_733" data-name="Path 733" d="M182.281,203.45c-9.679.774-18.614,3.291-25.594,7.321-5.7,3.291-9.57,7.271-11.3,11.541,1.731,4.259,5.594,8.25,11.3,11.541a48.561,48.561,0,0,0,6.8,3.229c-4.646-2.679-9.369-6.713-9.388-12.094C154.07,214.329,167,205.126,182.281,203.45Z" transform="translate(-122.444 -190.004)" opacity="0.4"/>
        </g>
      </g>
    </g>
    <g id="freepik--steam--inject-11" transform="translate(164.109 -599.91)">
      <path id="Path_745" data-name="Path 745" d="M227.669,126.134c.457-2.814-.816-4.98-3.561-6.843-3.17-2.15-8.428-5.1-9.673-11.38-2.319-11.818,12.8-18.323,15.784-20.531,3.382-2.5,5.217-4.486,4.736-9.27,5.413,4.6,7.612,14.61-2.346,20.555-7.656,4.567-11.826,9.806-7.536,15.5C229.6,120.172,230,122.584,227.669,126.134Z" transform="translate(-209.381 -68.837)" fill="#707070" opacity="0.2"/>
      <path id="Path_746" data-name="Path 746" d="M243.2,105.629c-.362,3.657-4.622,6.215-7.512,7.884s-6.027,3.137-8.482,5.511a10.738,10.738,0,0,0-3.464,7.8,9.519,9.519,0,0,0,5.736,8.656c.111.054.185,0-.163-.272a11.42,11.42,0,0,1-3.583-4.681,9.558,9.558,0,0,1-.217-5.734c1.03-3.355,3.757-5.644,6.617-7.465,4.282-2.719,10.989-5.78,11.187-11.706C243.323,105.49,243.209,105.558,243.2,105.629Z" transform="translate(-216.333 -88.814)" fill="#707070" opacity="0.2"/>
      <path id="Path_747" data-name="Path 747" d="M215.839,44c3.9,4.894,3.458,11.908-2.324,15.673S198.674,67.9,198.886,75.264c-3.344-4.507-3.635-10.807,2.034-15.143,2.784-2.131,8.259-4.469,11.168-7.275C214.605,50.413,216.266,47.3,215.839,44Z" transform="translate(-196.491 -44)" fill="#707070" opacity="0.2"/>
    </g>
  </g>
</svg>
